<mxfile host="app.diagrams.net" modified="2023-04-06T11:45:00.692Z" agent="Mozilla/5.0 (Windows NT 10.0; Win64; x64) AppleWebKit/537.36 (KHTML, like Gecko) Chrome/111.0.0.0 Safari/537.36" etag="78MmpBf8EGlGEcHgqWjj" version="21.1.1" type="device">
  <diagram name="Page-1" id="eB6WQB1ni22udU52tHjP">
    <mxGraphModel dx="1050" dy="549" grid="1" gridSize="10" guides="1" tooltips="1" connect="1" arrows="1" fold="1" page="1" pageScale="1" pageWidth="850" pageHeight="1100" math="0" shadow="0">
      <root>
        <mxCell id="0" />
        <mxCell id="1" parent="0" />
        <mxCell id="r6-muIFebZaNlUlW9fvT-19" value="&lt;br&gt;" style="html=1;whiteSpace=wrap;" parent="1" vertex="1">
          <mxGeometry x="120" y="50" width="530" height="660" as="geometry" />
        </mxCell>
        <mxCell id="r6-muIFebZaNlUlW9fvT-1" value="End-User" style="shape=umlActor;verticalLabelPosition=bottom;verticalAlign=top;html=1;outlineConnect=0;" parent="1" vertex="1">
          <mxGeometry x="40" y="400" width="30" height="60" as="geometry" />
        </mxCell>
        <mxCell id="r6-muIFebZaNlUlW9fvT-2" value="Support team" style="shape=umlActor;verticalLabelPosition=bottom;verticalAlign=top;html=1;outlineConnect=0;" parent="1" vertex="1">
          <mxGeometry x="740" y="420" width="30" height="60" as="geometry" />
        </mxCell>
        <mxCell id="r6-muIFebZaNlUlW9fvT-6" value="Login using metamask" style="ellipse;whiteSpace=wrap;html=1;" parent="1" vertex="1">
          <mxGeometry x="200" y="60" width="140" height="60" as="geometry" />
        </mxCell>
        <mxCell id="r6-muIFebZaNlUlW9fvT-7" value="create notes" style="ellipse;whiteSpace=wrap;html=1;" parent="1" vertex="1">
          <mxGeometry x="230" y="170" width="140" height="60" as="geometry" />
        </mxCell>
        <mxCell id="r6-muIFebZaNlUlW9fvT-8" value="Edit notes" style="ellipse;whiteSpace=wrap;html=1;" parent="1" vertex="1">
          <mxGeometry x="270" y="320" width="140" height="60" as="geometry" />
        </mxCell>
        <mxCell id="r6-muIFebZaNlUlW9fvT-9" value="delete notes" style="ellipse;whiteSpace=wrap;html=1;" parent="1" vertex="1">
          <mxGeometry x="250" y="410" width="140" height="60" as="geometry" />
        </mxCell>
        <mxCell id="r6-muIFebZaNlUlW9fvT-10" value="toggle storage" style="ellipse;whiteSpace=wrap;html=1;" parent="1" vertex="1">
          <mxGeometry x="210" y="510" width="140" height="60" as="geometry" />
        </mxCell>
        <mxCell id="r6-muIFebZaNlUlW9fvT-12" value="Save notes" style="ellipse;whiteSpace=wrap;html=1;" parent="1" vertex="1">
          <mxGeometry x="430" y="160" width="140" height="60" as="geometry" />
        </mxCell>
        <mxCell id="r6-muIFebZaNlUlW9fvT-13" value="Logout" style="ellipse;whiteSpace=wrap;html=1;" parent="1" vertex="1">
          <mxGeometry x="190" y="630" width="140" height="60" as="geometry" />
        </mxCell>
        <mxCell id="r6-muIFebZaNlUlW9fvT-18" value="automatic deletion" style="ellipse;whiteSpace=wrap;html=1;" parent="1" vertex="1">
          <mxGeometry x="450" y="260" width="140" height="60" as="geometry" />
        </mxCell>
        <mxCell id="r6-muIFebZaNlUlW9fvT-20" value="handle issues in email/ gitlab" style="ellipse;whiteSpace=wrap;html=1;" parent="1" vertex="1">
          <mxGeometry x="470" y="450" width="140" height="60" as="geometry" />
        </mxCell>
        <mxCell id="r6-muIFebZaNlUlW9fvT-23" value="" style="endArrow=block;endFill=0;endSize=12;html=1;rounded=0;entryX=0.211;entryY=0.894;entryDx=0;entryDy=0;entryPerimeter=0;" parent="1" target="r6-muIFebZaNlUlW9fvT-6" edge="1">
          <mxGeometry width="160" relative="1" as="geometry">
            <mxPoint x="70" y="400" as="sourcePoint" />
            <mxPoint x="200" y="260" as="targetPoint" />
          </mxGeometry>
        </mxCell>
        <mxCell id="r6-muIFebZaNlUlW9fvT-24" value="" style="endArrow=block;endFill=0;endSize=12;html=1;rounded=0;" parent="1" target="r6-muIFebZaNlUlW9fvT-7" edge="1">
          <mxGeometry width="160" relative="1" as="geometry">
            <mxPoint x="70" y="410" as="sourcePoint" />
            <mxPoint x="230" y="94" as="targetPoint" />
          </mxGeometry>
        </mxCell>
        <mxCell id="r6-muIFebZaNlUlW9fvT-25" value="" style="endArrow=block;endFill=0;endSize=12;html=1;rounded=0;" parent="1" target="r6-muIFebZaNlUlW9fvT-8" edge="1">
          <mxGeometry width="160" relative="1" as="geometry">
            <mxPoint x="80" y="420" as="sourcePoint" />
            <mxPoint x="240" y="104" as="targetPoint" />
          </mxGeometry>
        </mxCell>
        <mxCell id="r6-muIFebZaNlUlW9fvT-26" value="" style="endArrow=block;endFill=0;endSize=12;html=1;rounded=0;" parent="1" source="r6-muIFebZaNlUlW9fvT-1" target="r6-muIFebZaNlUlW9fvT-9" edge="1">
          <mxGeometry width="160" relative="1" as="geometry">
            <mxPoint x="93" y="406" as="sourcePoint" />
            <mxPoint x="250" y="114" as="targetPoint" />
          </mxGeometry>
        </mxCell>
        <mxCell id="r6-muIFebZaNlUlW9fvT-27" value="" style="endArrow=block;endFill=0;endSize=12;html=1;rounded=0;" parent="1" source="r6-muIFebZaNlUlW9fvT-1" target="r6-muIFebZaNlUlW9fvT-10" edge="1">
          <mxGeometry width="160" relative="1" as="geometry">
            <mxPoint x="103" y="416" as="sourcePoint" />
            <mxPoint x="260" y="124" as="targetPoint" />
          </mxGeometry>
        </mxCell>
        <mxCell id="r6-muIFebZaNlUlW9fvT-29" value="" style="endArrow=block;endFill=0;endSize=12;html=1;rounded=0;" parent="1" target="r6-muIFebZaNlUlW9fvT-13" edge="1">
          <mxGeometry width="160" relative="1" as="geometry">
            <mxPoint x="80" y="460" as="sourcePoint" />
            <mxPoint x="216" y="475" as="targetPoint" />
          </mxGeometry>
        </mxCell>
        <mxCell id="Nw9kA9vdA8MW54HGvY_V-1" value="" style="endArrow=block;endFill=0;endSize=12;html=1;rounded=0;entryX=1;entryY=0.5;entryDx=0;entryDy=0;" parent="1" target="r6-muIFebZaNlUlW9fvT-20" edge="1">
          <mxGeometry width="160" relative="1" as="geometry">
            <mxPoint x="740" y="450" as="sourcePoint" />
            <mxPoint x="607" y="702" as="targetPoint" />
          </mxGeometry>
        </mxCell>
        <mxCell id="Nw9kA9vdA8MW54HGvY_V-2" value="Use" style="endArrow=open;dashed=1;html=1;rounded=0;entryX=0;entryY=0.5;entryDx=0;entryDy=0;" parent="1" target="r6-muIFebZaNlUlW9fvT-12" edge="1">
          <mxGeometry width="160" relative="1" as="geometry">
            <mxPoint x="370" y="199.37" as="sourcePoint" />
            <mxPoint x="440" y="190" as="targetPoint" />
          </mxGeometry>
        </mxCell>
        <mxCell id="Nw9kA9vdA8MW54HGvY_V-3" value="" style="endArrow=block;endFill=0;endSize=12;html=1;rounded=0;" parent="1" target="r6-muIFebZaNlUlW9fvT-12" edge="1">
          <mxGeometry width="160" relative="1" as="geometry">
            <mxPoint x="80" y="420" as="sourcePoint" />
            <mxPoint x="278" y="237" as="targetPoint" />
          </mxGeometry>
        </mxCell>
        <mxCell id="Nw9kA9vdA8MW54HGvY_V-5" value="Use" style="endArrow=open;endSize=12;dashed=1;html=1;rounded=0;exitX=0.365;exitY=0.978;exitDx=0;exitDy=0;exitPerimeter=0;" parent="1" source="r6-muIFebZaNlUlW9fvT-18" target="r6-muIFebZaNlUlW9fvT-9" edge="1">
          <mxGeometry width="160" relative="1" as="geometry">
            <mxPoint x="330" y="380" as="sourcePoint" />
            <mxPoint x="490" y="380" as="targetPoint" />
          </mxGeometry>
        </mxCell>
        <mxCell id="Nw9kA9vdA8MW54HGvY_V-6" value="&lt;b&gt;UseCase diagram&lt;/b&gt;" style="text;html=1;align=center;verticalAlign=middle;resizable=0;points=[];autosize=1;strokeColor=none;fillColor=none;" parent="1" vertex="1">
          <mxGeometry x="270" y="735" width="120" height="30" as="geometry" />
        </mxCell>
      </root>
    </mxGraphModel>
  </diagram>
</mxfile>
